<mxfile host="app.diagrams.net" modified="2023-10-22T08:20:17.364Z" agent="Mozilla/5.0 (Macintosh; Intel Mac OS X 10_15_7) AppleWebKit/537.36 (KHTML, like Gecko) Chrome/118.0.0.0 Safari/537.36" version="22.0.6" etag="EWWAxtj8Wce2P5pUvw4K" type="github">
  <diagram name="Page-1" id="vq4zcLMNqd9nZXXzY1yO">
    <mxGraphModel>
      <root>
        <mxCell id="0" />
        <mxCell id="1" parent="0" />
      </root>
    </mxGraphModel>
  </diagram>
</mxfile>
